<?xml version="1.0" encoding="UTF-8"?>
<!DOCTYPE svg PUBLIC "-//W3C//DTD SVG 1.1//EN" "http://www.w3.org/Graphics/SVG/1.1/DTD/svg11.dtd">
<!-- Creator: CorelDRAW 2019 (64-Bit) -->
<svg xmlns="http://www.w3.org/2000/svg" xml:space="preserve" width="11.8253mm" height="11.8249mm" version="1.1" style="shape-rendering:geometricPrecision; text-rendering:geometricPrecision; image-rendering:optimizeQuality; fill-rule:evenodd; clip-rule:evenodd"
viewBox="0 0 122.39 122.39"
 xmlns:xlink="http://www.w3.org/1999/xlink"
 xmlns:xodm="http://www.corel.com/coreldraw/odm/2003">
 <defs>
  <style type="text/css">
   <![CDATA[
    .fil0 {fill:#E31E24}
   ]]>
  </style>
 </defs>
 <g id="Warstwa_x0020_1">
  <metadata id="CorelCorpID_0Corel-Layer"/>
  <path class="fil0" d="M37.06 61.97l-24.13 23.86c-3.45,3.46 -9.4,7.92 -11.58,13.02 -5.75,13.48 7.94,27.27 21.5,22.3 4.33,-1.59 34.37,-31.3 37.59,-35.96 3.91,2.22 20.46,19.9 24.85,24.3 6.5,6.52 18.36,20.49 31.68,7.65 20.18,-19.45 -21.73,-39.35 -31.93,-56.54 4.52,-3.06 33.95,-32.74 35.77,-36.89 3.18,-7.24 0.18,-14.7 -3.75,-18.72 -4.03,-4.12 -11.3,-6.64 -18.43,-3.5 -5.47,2.41 -9.45,7.36 -13.32,11.25 -4.33,4.35 -21.04,22.14 -24.87,24.3 -3.22,-4.65 -32.68,-33.89 -36.97,-35.73 -13.37,-5.72 -28.02,8.22 -22.1,22.03 2.26,5.28 18.82,20.12 23.85,25.28 3.95,4.06 10.56,9.49 11.84,13.33z"/>
 </g>
</svg>
