<?xml version="1.0" encoding="UTF-8"?>
<!DOCTYPE svg PUBLIC "-//W3C//DTD SVG 1.1//EN" "http://www.w3.org/Graphics/SVG/1.1/DTD/svg11.dtd">
<!-- Creator: CorelDRAW 2019 (64-Bit) -->
<svg xmlns="http://www.w3.org/2000/svg" xml:space="preserve" width="15.6925mm" height="11.8239mm" version="1.1" style="shape-rendering:geometricPrecision; text-rendering:geometricPrecision; image-rendering:optimizeQuality; fill-rule:evenodd; clip-rule:evenodd"
viewBox="0 0 320.01 241.12"
 xmlns:xlink="http://www.w3.org/1999/xlink"
 xmlns:xodm="http://www.corel.com/coreldraw/odm/2003">
 <defs>
  <style type="text/css">
   <![CDATA[
    .fil0 {fill:#009846}
   ]]>
  </style>
 </defs>
 <g id="Warstwa_x0020_1">
  <metadata id="CorelCorpID_0Corel-Layer"/>
  <path class="fil0" d="M112.93 159.67c-28.22,-15.17 -54.4,-76.28 -91.54,-62.39 -17.84,6.67 -29.46,32.85 -14.61,50.95 5.54,6.76 13.74,13.72 19.85,19.81 6.79,6.76 12.23,12.25 19,18.99 13.4,13.32 25.56,25.42 38.88,38.82 15.89,15.99 33.52,22.35 52.79,4.56l77.74 -77.61c26.62,-26.55 52.04,-51.85 78.6,-78.52 9.94,-9.98 32.11,-25.38 24.96,-49.72 -5.22,-17.75 -28.5,-32.81 -49.22,-19.43 -10.16,6.56 -30.1,28.8 -39.5,38.2l-116.96 116.35z"/>
 </g>
</svg>
